STARTFONT 2.1
COMMENT Created by fdbbdf
FONT Symbol16
SIZE 16 78 78
FONTBOUNDINGBOX 20 26 -1 -7
STARTPROPERTIES 4
Ownership "  Copyright (c) 1984 Adobe Systems, Inc.  /adobe/fonts/Times/Greek/fontvec.ps TG18.bits  TOTAL BITMAP BYTES 3659  GUIDELINES 0 0 0 0 13 -4 9 DONE  "
FONT_ASCENT 19
FONT_DESCENT 7
DEFAULT_CHAR 32
ENDPROPERTIES
CHARS 95
STARTCHAR similar
ENCODING -1 126
SWIDTH 0 0
DWIDTH 10 0
BBX 8 3 1 3
BITMAP
7300
ff00
ce00
ENDCHAR
STARTCHAR braceright
ENCODING -1 125
SWIDTH 0 0
DWIDTH 9 0
BBX 7 17 1 -5
BITMAP
e000
3000
1800
1800
1800
1800
1800
0c00
0600
0c00
1800
1800
1800
1800
1800
3000
e000
ENDCHAR
STARTCHAR bar
ENCODING -1 124
SWIDTH 0 0
DWIDTH 4 0
BBX 2 17 1 -5
BITMAP
c000
c000
c000
c000
c000
c000
c000
c000
c000
c000
c000
c000
c000
c000
c000
c000
c000
ENDCHAR
STARTCHAR braceleft
ENCODING -1 123
SWIDTH 0 0
DWIDTH 9 0
BBX 7 17 1 -5
BITMAP
0e00
1800
3000
3000
3000
3000
3000
6000
c000
6000
3000
3000
3000
3000
3000
1800
0e00
ENDCHAR
STARTCHAR zeta
ENCODING -1 122
SWIDTH 0 0
DWIDTH 9 0
BBX 7 19 1 -5
BITMAP
6000
8600
9e00
7800
6000
4000
8000
8000
8000
8000
8000
8000
c000
fc00
7e00
0200
0200
1e00
1c00
ENDCHAR
STARTCHAR psi
ENCODING -1 121
SWIDTH 0 0
DWIDTH 13 0
BBX 13 13 0 -5
BITMAP
e238
7270
3260
3260
3260
3260
1ac0
1ac0
0f80
0200
0200
0200
0200
ENDCHAR
STARTCHAR xi
ENCODING -1 120
SWIDTH 0 0
DWIDTH 9 0
BBX 7 19 1 -5
BITMAP
6000
8e00
fc00
2000
4000
4000
7c00
7800
c000
8000
8000
8000
c000
fc00
7e00
0200
0200
1e00
1c00
ENDCHAR
STARTCHAR omega
ENCODING -1 119
SWIDTH 0 0
DWIDTH 12 0
BBX 10 9 1 -1
BITMAP
3300
6180
4080
ccc0
ccc0
ccc0
ccc0
6d80
7380
ENDCHAR
STARTCHAR omega1
ENCODING -1 118
SWIDTH 0 0
DWIDTH 12 0
BBX 11 11 0 -1
BITMAP
3fe0
7fe0
9980
30c0
2040
6660
6660
6660
6660
36c0
39c0
ENDCHAR
STARTCHAR upsilon
ENCODING -1 117
SWIDTH 0 0
DWIDTH 11 0
BBX 9 9 1 -1
BITMAP
6300
f180
b180
3180
3180
3180
3180
3b00
1e00
ENDCHAR
STARTCHAR tau
ENCODING -1 116
SWIDTH 0 0
DWIDTH 8 0
BBX 7 9 0 -1
BITMAP
7e00
fe00
9000
1000
1000
1000
1200
1e00
1c00
ENDCHAR
STARTCHAR sigma
ENCODING -1 115
SWIDTH 0 0
DWIDTH 11 0
BBX 10 9 1 -1
BITMAP
1fc0
7fc0
6600
c300
c300
c300
c300
6600
3c00
ENDCHAR
STARTCHAR rho
ENCODING -1 114
SWIDTH 0 0
DWIDTH 10 0
BBX 8 13 1 -5
BITMAP
3c00
4600
c300
c300
c300
c300
c300
e600
dc00
c000
c000
c000
c000
ENDCHAR
STARTCHAR theta
ENCODING -1 113
SWIDTH 0 0
DWIDTH 10 0
BBX 8 13 1 -1
BITMAP
3c00
6600
c300
c300
c300
c300
ff00
c300
c300
c300
c300
6600
3c00
ENDCHAR
STARTCHAR pi
ENCODING -1 112
SWIDTH 0 0
DWIDTH 10 0
BBX 9 9 0 -1
BITMAP
7f80
ff80
9200
1200
1200
1200
3280
7380
6300
ENDCHAR
STARTCHAR omicron
ENCODING -1 111
SWIDTH 0 0
DWIDTH 10 0
BBX 8 9 1 -1
BITMAP
3c00
6600
c300
c300
c300
c300
c300
6600
3c00
ENDCHAR
STARTCHAR nu
ENCODING -1 110
SWIDTH 0 0
DWIDTH 10 0
BBX 8 9 1 -1
BITMAP
c300
c300
6100
6200
3200
3400
1c00
1800
0800
ENDCHAR
STARTCHAR mu
ENCODING -1 109
SWIDTH 0 0
DWIDTH 11 0
BBX 9 13 2 -5
BITMAP
4200
c600
c600
c600
c600
c600
c680
fb80
7b00
4000
c000
c000
c000
ENDCHAR
STARTCHAR lambda
ENCODING -1 108
SWIDTH 0 0
DWIDTH 10 0
BBX 10 14 0 -1
BITMAP
3000
7800
4800
0800
0800
0800
1800
1c00
3400
3400
6600
6240
c3c0
c180
ENDCHAR
STARTCHAR kappa
ENCODING -1 107
SWIDTH 0 0
DWIDTH 10 0
BBX 9 9 0 -1
BITMAP
6380
e580
6800
7000
7800
6c00
6600
6300
6180
ENDCHAR
STARTCHAR phi1
ENCODING -1 106
SWIDTH 0 0
DWIDTH 11 0
BBX 9 13 1 -5
BITMAP
6600
cf00
c980
c980
c980
c980
4900
6b00
3e00
0800
0800
0800
0800
ENDCHAR
STARTCHAR iota
ENCODING -1 105
SWIDTH 0 0
DWIDTH 6 0
BBX 5 9 1 -1
BITMAP
6000
e000
6000
6000
6000
6000
6000
6800
7000
ENDCHAR
STARTCHAR eta
ENCODING -1 104
SWIDTH 0 0
DWIDTH 11 0
BBX 9 13 1 -5
BITMAP
6700
e980
b180
3180
3180
3180
3180
3180
3180
0180
0180
0180
0180
ENDCHAR
STARTCHAR gamma
ENCODING -1 103
SWIDTH 0 0
DWIDTH 8 0
BBX 8 13 0 -5
BITMAP
c300
e300
a300
2600
2600
1600
1400
1c00
0c00
1800
1800
1800
1800
ENDCHAR
STARTCHAR phi
ENCODING -1 102
SWIDTH 0 0
DWIDTH 11 0
BBX 9 16 1 -5
BITMAP
0800
0800
0800
3e00
6b00
c980
c980
c980
c980
c980
6b00
3e00
0800
0800
0800
0800
ENDCHAR
STARTCHAR epsilon
ENCODING -1 101
SWIDTH 0 0
DWIDTH 8 0
BBX 6 9 1 -1
BITMAP
7800
ec00
cc00
c000
7000
c000
c000
e400
7800
ENDCHAR
STARTCHAR delta
ENCODING -1 100
SWIDTH 0 0
DWIDTH 9 0
BBX 7 14 1 -1
BITMAP
3800
4c00
4000
6000
3000
3800
6c00
c600
c600
c600
c600
c600
6c00
3800
ENDCHAR
STARTCHAR chi
ENCODING -1 99
SWIDTH 0 0
DWIDTH 10 0
BBX 10 13 0 -5
BITMAP
60c0
f1c0
9180
1300
1700
0e00
0c00
1c00
1a00
3200
6240
e3c0
c180
ENDCHAR
STARTCHAR beta
ENCODING -1 98
SWIDTH 0 0
DWIDTH 10 0
BBX 8 18 1 -5
BITMAP
3c00
4600
c600
c600
c600
cc00
c600
c300
c300
c300
c300
c300
e600
dc00
c000
c000
c000
c000
ENDCHAR
STARTCHAR alpha
ENCODING -1 97
SWIDTH 0 0
DWIDTH 12 0
BBX 11 9 1 -1
BITMAP
3cc0
6580
c300
c300
c300
c300
c300
6520
38c0
ENDCHAR
STARTCHAR radicalex
ENCODING -1 96
SWIDTH 0 0
DWIDTH 9 0
BBX 10 1 9 15
BITMAP
ffc0
ENDCHAR
STARTCHAR underscore
ENCODING -1 95
SWIDTH 0 0
DWIDTH 9 0
BBX 9 2 0 -5
BITMAP
ff80
ff80
ENDCHAR
STARTCHAR perpendicular
ENCODING -1 94
SWIDTH 0 0
DWIDTH 12 0
BBX 10 13 1 -1
BITMAP
0c00
0c00
0c00
0c00
0c00
0c00
0c00
0c00
0c00
0c00
0c00
ffc0
ffc0
ENDCHAR
STARTCHAR bracketright
ENCODING -1 93
SWIDTH 0 0
DWIDTH 6 0
BBX 4 17 1 -5
BITMAP
f000
3000
3000
3000
3000
3000
3000
3000
3000
3000
3000
3000
3000
3000
3000
3000
f000
ENDCHAR
STARTCHAR therefore
ENCODING -1 92
SWIDTH 0 0
DWIDTH 14 0
BBX 10 9 2 -1
BITMAP
0c00
0c00
0000
0000
0000
0000
0000
c0c0
c0c0
ENDCHAR
STARTCHAR bracketleft
ENCODING -1 91
SWIDTH 0 0
DWIDTH 6 0
BBX 4 17 1 -5
BITMAP
f000
c000
c000
c000
c000
c000
c000
c000
c000
c000
c000
c000
c000
c000
c000
c000
f000
ENDCHAR
STARTCHAR Zeta
ENCODING -1 90
SWIDTH 0 0
DWIDTH 11 0
BBX 9 13 1 -1
BITMAP
ff80
c380
8300
0700
0600
0e00
1c00
1800
3800
7000
6080
e180
ff80
ENDCHAR
STARTCHAR Psi
ENCODING -1 89
SWIDTH 0 0
DWIDTH 15 0
BBX 14 13 0 -1
BITMAP
c78c
6318
6318
6318
6318
3330
1fe0
0300
0300
0300
0300
0300
0780
ENDCHAR
STARTCHAR Xi
ENCODING -1 88
SWIDTH 0 0
DWIDTH 12 0
BBX 10 13 1 -1
BITMAP
7f80
7f80
4080
0000
2100
3f00
3f00
2100
0000
8040
8040
ffc0
ffc0
ENDCHAR
STARTCHAR Omega
ENCODING -1 87
SWIDTH 0 0
DWIDTH 14 0
BBX 13 13 0 -1
BITMAP
0700
18c0
3060
7070
6030
6030
6030
6030
3060
38e0
8888
f8f8
f8f8
ENDCHAR
STARTCHAR sigma1
ENCODING -1 86
SWIDTH 0 0
DWIDTH 8 0
BBX 6 13 1 -5
BITMAP
3c00
7c00
c000
8000
8000
8000
c000
7800
3c00
0400
0400
3c00
3800
ENDCHAR
STARTCHAR Upsilon
ENCODING -1 85
SWIDTH 0 0
DWIDTH 13 0
BBX 12 13 0 -1
BITMAP
f8f0
7060
30c0
18c0
1d80
0f00
0f00
0600
0600
0600
0600
0600
0f00
ENDCHAR
STARTCHAR Tau
ENCODING -1 84
SWIDTH 0 0
DWIDTH 12 0
BBX 10 13 1 -1
BITMAP
ffc0
ccc0
8c40
0c00
0c00
0c00
0c00
0c00
0c00
0c00
0c00
0c00
1e00
ENDCHAR
STARTCHAR Sigma
ENCODING -1 83
SWIDTH 0 0
DWIDTH 11 0
BBX 10 13 0 -1
BITMAP
ff80
c180
6080
3000
1800
0c00
0c00
0800
1000
2040
40c0
ff80
ff80
ENDCHAR
STARTCHAR Rho
ENCODING -1 82
SWIDTH 0 0
DWIDTH 10 0
BBX 8 13 1 -1
BITMAP
fe00
6700
6300
6300
6300
6700
7e00
6000
6000
6000
6000
6000
f000
ENDCHAR
STARTCHAR Theta
ENCODING -1 81
SWIDTH 0 0
DWIDTH 13 0
BBX 11 13 1 -1
BITMAP
0e00
3180
60c0
e0e0
c060
d160
df60
d160
c060
e0e0
60c0
3180
0e00
ENDCHAR
STARTCHAR Pi
ENCODING -1 80
SWIDTH 0 0
DWIDTH 13 0
BBX 11 13 1 -1
BITMAP
ffe0
60c0
60c0
60c0
60c0
60c0
60c0
60c0
60c0
60c0
60c0
60c0
f1e0
ENDCHAR
STARTCHAR Omicron
ENCODING -1 79
SWIDTH 0 0
DWIDTH 13 0
BBX 11 13 1 -1
BITMAP
0e00
3180
60c0
e0e0
c060
c060
c060
c060
c060
e0e0
60c0
3180
0e00
ENDCHAR
STARTCHAR Nu
ENCODING -1 78
SWIDTH 0 0
DWIDTH 13 0
BBX 11 13 1 -1
BITMAP
e0e0
7040
7040
5840
4c40
4c40
4640
4340
43c0
41c0
40c0
40c0
e040
ENDCHAR
STARTCHAR Mu
ENCODING -1 77
SWIDTH 0 0
DWIDTH 16 0
BBX 14 13 1 -1
BITMAP
e01c
7038
7038
5878
5858
58d8
4c98
4c98
4d98
4718
4718
4318
e23c
ENDCHAR
STARTCHAR Lambda
ENCODING -1 76
SWIDTH 0 0
DWIDTH 13 0
BBX 12 13 0 -1
BITMAP
0600
0600
0f00
0b00
0b00
1980
1180
1180
30c0
20c0
2060
6060
f0f0
ENDCHAR
STARTCHAR Kappa
ENCODING -1 75
SWIDTH 0 0
DWIDTH 14 0
BBX 11 13 1 -1
BITMAP
f3c0
6180
6300
6600
6c00
7800
7800
6c00
6600
6300
6380
61c0
f1e0
ENDCHAR
STARTCHAR theta1
ENCODING -1 74
SWIDTH 0 0
DWIDTH 12 0
BBX 11 13 1 -1
BITMAP
0600
0b00
0980
0580
6380
f180
b1c0
31a0
3180
3180
3180
3b00
1e00
ENDCHAR
STARTCHAR Iota
ENCODING -1 73
SWIDTH 0 0
DWIDTH 6 0
BBX 4 13 1 -1
BITMAP
f000
6000
6000
6000
6000
6000
6000
6000
6000
6000
6000
6000
f000
ENDCHAR
STARTCHAR Eta
ENCODING -1 72
SWIDTH 0 0
DWIDTH 13 0
BBX 11 13 1 -1
BITMAP
f1e0
60c0
60c0
60c0
60c0
60c0
7fc0
60c0
60c0
60c0
60c0
60c0
f1e0
ENDCHAR
STARTCHAR Gamma
ENCODING -1 71
SWIDTH 0 0
DWIDTH 11 0
BBX 10 13 0 -1
BITMAP
ffc0
70c0
3040
3000
3000
3000
3000
3000
3000
3000
3000
3000
7800
ENDCHAR
STARTCHAR Phi
ENCODING -1 70
SWIDTH 0 0
DWIDTH 14 0
BBX 13 13 0 -1
BITMAP
0780
0300
0fc0
3330
6318
6318
6318
6318
6318
3330
0fc0
0300
0780
ENDCHAR
STARTCHAR Epsilon
ENCODING -1 69
SWIDTH 0 0
DWIDTH 11 0
BBX 9 13 1 -1
BITMAP
ff80
6180
6080
6000
6000
6100
7f00
6100
6000
6000
6080
6180
ff80
ENDCHAR
STARTCHAR Delta
ENCODING -1 68
SWIDTH 0 0
DWIDTH 11 0
BBX 11 13 0 -1
BITMAP
0400
0600
0e00
0b00
1300
1300
1180
2180
21c0
40c0
40c0
8060
ffe0
ENDCHAR
STARTCHAR Chi
ENCODING -1 67
SWIDTH 0 0
DWIDTH 14 0
BBX 12 13 1 -1
BITMAP
f070
7060
38c0
18c0
1d80
0f00
0600
0f00
1b80
3180
31c0
60e0
e0f0
ENDCHAR
STARTCHAR Beta
ENCODING -1 66
SWIDTH 0 0
DWIDTH 11 0
BBX 9 13 1 -1
BITMAP
fc00
6600
6300
6300
6300
6600
7e00
6300
6180
6180
6180
6380
ff00
ENDCHAR
STARTCHAR Alpha
ENCODING -1 65
SWIDTH 0 0
DWIDTH 14 0
BBX 12 13 1 -1
BITMAP
0400
0e00
0e00
0b00
1b00
1300
1180
3180
3fc0
20c0
60c0
60e0
f1f0
ENDCHAR
STARTCHAR congruent
ENCODING -1 64
SWIDTH 0 0
DWIDTH 10 0
BBX 8 9 1 -1
BITMAP
7300
ff00
ce00
0000
ff00
ff00
0000
ff00
ff00
ENDCHAR
STARTCHAR question
ENCODING -1 63
SWIDTH 0 0
DWIDTH 8 0
BBX 6 13 1 -1
BITMAP
7800
dc00
cc00
cc00
0c00
0c00
1800
3000
3000
3000
0000
3000
3000
ENDCHAR
STARTCHAR greater
ENCODING -1 62
SWIDTH 0 0
DWIDTH 10 0
BBX 9 9 0 -1
BITMAP
e000
7800
1e00
0780
0180
0780
1e00
7800
e000
ENDCHAR
STARTCHAR equal
ENCODING -1 61
SWIDTH 0 0
DWIDTH 10 0
BBX 8 5 1 1
BITMAP
ff00
ff00
0000
ff00
ff00
ENDCHAR
STARTCHAR less
ENCODING -1 60
SWIDTH 0 0
DWIDTH 10 0
BBX 9 9 0 -1
BITMAP
0380
0f00
3c00
f000
c000
f000
3c00
0f00
0380
ENDCHAR
STARTCHAR semicolon
ENCODING -1 59
SWIDTH 0 0
DWIDTH 5 0
BBX 3 12 1 -4
BITMAP
6000
6000
0000
0000
0000
0000
0000
6000
6000
2000
6000
c000
ENDCHAR
STARTCHAR colon
ENCODING -1 58
SWIDTH 0 0
DWIDTH 5 0
BBX 2 9 2 -1
BITMAP
c000
c000
0000
0000
0000
0000
0000
c000
c000
ENDCHAR
STARTCHAR nine
ENCODING -1 57
SWIDTH 0 0
DWIDTH 9 0
BBX 8 13 0 -1
BITMAP
3c00
6e00
c700
c300
c300
c300
e300
7f00
3a00
0600
0c00
3800
e000
ENDCHAR
STARTCHAR eight
ENCODING -1 56
SWIDTH 0 0
DWIDTH 9 0
BBX 8 13 0 -1
BITMAP
3c00
6600
6600
6600
7400
3c00
7e00
6600
c300
c300
c300
6600
3c00
ENDCHAR
STARTCHAR seven
ENCODING -1 55
SWIDTH 0 0
DWIDTH 9 0
BBX 8 13 0 -1
BITMAP
7f00
ff00
8600
0600
0c00
0c00
0c00
1800
1800
1800
3000
3000
3000
ENDCHAR
STARTCHAR six
ENCODING -1 54
SWIDTH 0 0
DWIDTH 9 0
BBX 8 13 0 -1
BITMAP
0e00
3800
3000
6000
6000
fc00
c600
c300
c300
c300
c300
6600
3c00
ENDCHAR
STARTCHAR five
ENCODING -1 53
SWIDTH 0 0
DWIDTH 9 0
BBX 7 13 1 -1
BITMAP
7e00
7c00
c000
c000
f000
3c00
0c00
0e00
0600
0600
0c00
dc00
f000
ENDCHAR
STARTCHAR four
ENCODING -1 52
SWIDTH 0 0
DWIDTH 9 0
BBX 8 13 0 -1
BITMAP
0600
0e00
0e00
1e00
3600
3600
6600
c600
c600
ff00
0600
0600
0600
ENDCHAR
STARTCHAR three
ENCODING -1 51
SWIDTH 0 0
DWIDTH 9 0
BBX 7 13 1 -1
BITMAP
7c00
ce00
8600
0600
0c00
3800
3c00
0e00
0600
0600
0600
cc00
f800
ENDCHAR
STARTCHAR two
ENCODING -1 50
SWIDTH 0 0
DWIDTH 9 0
BBX 7 13 1 -1
BITMAP
3c00
7e00
ce00
8600
0600
0600
0c00
1c00
1800
3000
6200
fe00
fe00
ENDCHAR
STARTCHAR one
ENCODING -1 49
SWIDTH 0 0
DWIDTH 9 0
BBX 7 13 1 -1
BITMAP
1800
7800
d800
9800
1800
1800
1800
1800
1800
1800
1800
3c00
7e00
ENDCHAR
STARTCHAR zero
ENCODING -1 48
SWIDTH 0 0
DWIDTH 9 0
BBX 8 13 0 -1
BITMAP
3c00
6600
6600
c300
c300
c300
c300
c300
c300
c300
6600
6600
3c00
ENDCHAR
STARTCHAR slash
ENCODING -1 47
SWIDTH 0 0
DWIDTH 5 0
BBX 5 13 0 -1
BITMAP
1800
1800
1800
3000
3000
3000
6000
6000
6000
6000
c000
c000
c000
ENDCHAR
STARTCHAR period
ENCODING -1 46
SWIDTH 0 0
DWIDTH 4 0
BBX 2 2 1 -1
BITMAP
c000
c000
ENDCHAR
STARTCHAR minus
ENCODING -1 45
SWIDTH 0 0
DWIDTH 9 0
BBX 7 2 1 3
BITMAP
fe00
fe00
ENDCHAR
STARTCHAR comma
ENCODING -1 44
SWIDTH 0 0
DWIDTH 5 0
BBX 3 5 1 -4
BITMAP
6000
6000
2000
6000
c000
ENDCHAR
STARTCHAR plus
ENCODING -1 43
SWIDTH 0 0
DWIDTH 10 0
BBX 8 8 1 0
BITMAP
1800
1800
1800
ff00
ff00
1800
1800
1800
ENDCHAR
STARTCHAR asteriskmath
ENCODING -1 42
SWIDTH 0 0
DWIDTH 9 0
BBX 7 7 1 2
BITMAP
1000
d600
7c00
3800
7c00
d600
1000
ENDCHAR
STARTCHAR parenright
ENCODING -1 41
SWIDTH 0 0
DWIDTH 6 0
BBX 4 17 1 -5
BITMAP
8000
c000
6000
6000
3000
3000
3000
3000
3000
3000
3000
3000
3000
6000
6000
c000
8000
ENDCHAR
STARTCHAR parenleft
ENCODING -1 40
SWIDTH 0 0
DWIDTH 6 0
BBX 4 17 1 -5
BITMAP
1000
3000
6000
6000
c000
c000
c000
c000
c000
c000
c000
c000
c000
6000
6000
3000
1000
ENDCHAR
STARTCHAR suchthat
ENCODING -1 39
SWIDTH 0 0
DWIDTH 8 0
BBX 6 9 1 -1
BITMAP
f000
3800
1c00
0c00
7c00
0c00
1c00
3800
f000
ENDCHAR
STARTCHAR ampersand
ENCODING -1 38
SWIDTH 0 0
DWIDTH 13 0
BBX 12 13 1 -1
BITMAP
1c00
3600
2200
2600
3c00
39e0
7cc0
ee80
c780
c300
c390
67f0
3ce0
ENDCHAR
STARTCHAR percent
ENCODING -1 37
SWIDTH 0 0
DWIDTH 15 0
BBX 13 13 1 -1
BITMAP
3860
67e0
c4c0
c580
e980
7300
0600
0670
0cc8
1988
1988
31d0
30e0
ENDCHAR
STARTCHAR existential
ENCODING -1 36
SWIDTH 0 0
DWIDTH 10 0
BBX 8 13 1 -1
BITMAP
ff00
0300
0300
0300
0300
0300
7f00
0300
0300
0300
0300
0300
ff00
ENDCHAR
STARTCHAR numbersign
ENCODING -1 35
SWIDTH 0 0
DWIDTH 9 0
BBX 10 13 -1 -1
BITMAP
0900
0900
0900
0900
7fc0
1200
1200
1200
ff80
2400
2400
2400
2400
ENDCHAR
STARTCHAR universal
ENCODING -1 34
SWIDTH 0 0
DWIDTH 13 0
BBX 13 13 0 -1
BITMAP
c018
c018
6030
6030
3fe0
3060
18c0
18c0
0880
0d80
0500
0700
0200
ENDCHAR
STARTCHAR exclam
ENCODING -1 33
SWIDTH 0 0
DWIDTH 6 0
BBX 2 13 2 -1
BITMAP
c000
c000
c000
c000
c000
c000
c000
4000
4000
0000
0000
c000
c000
ENDCHAR
STARTCHAR space
ENCODING -1 32
SWIDTH 0 0
DWIDTH 5 0
BBX 0 0 0 -1
BITMAP
ENDCHAR
ENDFONT
